<svg width="1061" height="504" viewBox="0 0 1061 504" fill="none" xmlns="http://www.w3.org/2000/svg">
<g clip-path="url(#clip0_9_3)">
<rect width="1060" height="504" transform="translate(0.734131)" fill="#FFFFE0"/>
<path d="M63.7341 263.72V171.56H79.8621L113.142 260.392H108.278L141.302 171.56H157.686V263.72H147.318V177.064H148.726L116.598 263.72H104.054L71.9261 177.832H73.3341V263.72H63.7341Z" fill="black"/>
<path d="M179.734 263.72V171.56H190.23V263.72H179.734Z" fill="black"/>
<path d="M251.274 265C244.959 265 239.114 263.848 233.738 261.544C228.447 259.155 223.839 255.869 219.914 251.688C215.989 247.421 212.959 242.429 210.826 236.712C208.693 230.909 207.626 224.552 207.626 217.64C207.626 210.728 208.693 204.413 210.826 198.696C212.959 192.893 215.946 187.901 219.786 183.72C223.711 179.453 228.319 176.168 233.61 173.864C238.986 171.475 244.831 170.28 251.146 170.28C258.058 170.28 264.245 171.688 269.706 174.504C275.253 177.32 279.775 181.288 283.274 186.408C286.858 191.528 289.077 197.501 289.93 204.328H279.434C278.41 196.733 275.381 190.76 270.346 186.408C265.397 181.971 259.039 179.752 251.274 179.752C244.703 179.752 238.943 181.373 233.994 184.616C229.045 187.773 225.205 192.211 222.474 197.928C219.743 203.56 218.378 210.131 218.378 217.64C218.378 225.149 219.743 231.763 222.474 237.48C225.205 243.112 229.045 247.549 233.994 250.792C238.943 253.949 244.661 255.528 251.146 255.528C259.082 255.528 265.567 253.309 270.602 248.872C275.722 244.435 278.751 238.461 279.69 230.952H290.186C289.333 237.779 287.114 243.752 283.53 248.872C280.031 253.992 275.509 257.96 269.962 260.776C264.501 263.592 258.271 265 251.274 265Z" fill="black"/>
<path d="M307.109 263.72V171.56H341.157C347.728 171.56 353.317 172.627 357.925 174.76C362.533 176.893 366.032 179.88 368.421 183.72C370.896 187.475 372.133 191.955 372.133 197.16C372.133 202.365 370.896 206.931 368.421 210.856C366.032 214.696 362.533 217.725 357.925 219.944C353.317 222.077 347.728 223.144 341.157 223.144H314.789V213.928H340.773C347.6 213.928 352.762 212.435 356.261 209.448C359.845 206.461 361.637 202.365 361.637 197.16C361.637 192.04 359.888 188.029 356.389 185.128C352.89 182.227 347.685 180.776 340.773 180.776H317.605V263.72H307.109ZM361.125 263.72L312.101 218.024H326.437L376.997 263.72H361.125Z" fill="black"/>
<path d="M429.28 265C422.88 265 416.992 263.848 411.616 261.544C406.325 259.155 401.717 255.827 397.792 251.56C393.867 247.208 390.795 242.131 388.576 236.328C386.443 230.525 385.376 224.168 385.376 217.256C385.376 208.125 387.253 200.019 391.008 192.936C394.763 185.853 399.925 180.307 406.496 176.296C413.152 172.285 420.704 170.28 429.152 170.28C437.771 170.28 445.365 172.285 451.936 176.296C458.592 180.307 463.797 185.853 467.552 192.936C471.307 200.019 473.184 208.168 473.184 217.384C473.184 224.296 472.075 230.653 469.856 236.456C467.723 242.259 464.693 247.293 460.768 251.56C456.843 255.827 452.192 259.155 446.816 261.544C441.44 263.848 435.595 265 429.28 265ZM429.152 255.528C435.723 255.528 441.483 253.907 446.432 250.664C451.467 247.336 455.392 242.771 458.208 236.968C461.024 231.165 462.432 224.552 462.432 217.128C462.432 209.789 461.024 203.304 458.208 197.672C455.477 192.04 451.595 187.645 446.56 184.488C441.611 181.331 435.808 179.752 429.152 179.752C422.496 179.752 416.693 181.331 411.744 184.488C406.795 187.645 402.955 192.04 400.224 197.672C397.493 203.219 396.128 209.704 396.128 217.128C396.128 224.637 397.493 231.293 400.224 237.096C403.04 242.813 406.923 247.336 411.872 250.664C416.821 253.907 422.581 255.528 429.152 255.528Z" fill="black"/>
<path d="M486.001 263.72V171.56H505.713V263.72H486.001ZM495.217 228.008V212.904H548.081V228.008H495.217ZM495.217 186.664V171.56H551.025V186.664H495.217Z" fill="black"/>
<path d="M561.501 263.72V171.56H581.213V263.72H561.501Z" fill="black"/>
<path d="M631.889 264.872C619.942 264.872 610.385 262.227 603.217 256.936C596.049 251.56 591.868 244.008 590.673 234.28H609.617C610.214 239.229 612.604 243.155 616.785 246.056C620.966 248.872 626.3 250.28 632.785 250.28C638.076 250.28 642.129 249.341 644.945 247.464C647.846 245.587 649.297 243.069 649.297 239.912C649.297 236.925 648.444 234.536 646.737 232.744C645.03 230.867 642.086 229.373 637.905 228.264L620.753 223.528C611.964 221.053 605.521 217.683 601.425 213.416C597.414 209.064 595.409 203.645 595.409 197.16C595.409 191.613 596.817 186.835 599.633 182.824C602.534 178.728 606.588 175.613 611.793 173.48C616.998 171.261 623.1 170.152 630.097 170.152C640.849 170.152 649.425 172.712 655.825 177.832C662.225 182.867 665.852 189.565 666.705 197.928H647.761C646.908 193.405 644.817 190.077 641.489 187.944C638.246 185.811 634.065 184.744 628.945 184.744C624.508 184.744 620.966 185.597 618.321 187.304C615.676 189.011 614.353 191.315 614.353 194.216C614.353 196.435 615.078 198.483 616.529 200.36C617.98 202.152 621.009 203.688 625.617 204.968L642.769 209.704C651.814 212.179 658.3 215.592 662.225 219.944C666.236 224.211 668.241 229.629 668.241 236.2C668.241 245.416 665.041 252.499 658.641 257.448C652.241 262.397 643.324 264.872 631.889 264.872Z" fill="black"/>
<path d="M677.501 263.72V171.56H697.213V263.72H677.501ZM737.149 263.72V171.56H756.861V263.72H737.149ZM686.717 208.168H746.109V223.272H686.717V208.168Z" fill="black"/>
<rect x="0.734131" y="281.777" width="1060" height="44.4446" fill="#FF8C00"/>
<rect x="0.734131" y="326.221" width="1060" height="44.4446" fill="#C34B1C"/>
<rect x="0.734131" y="370.666" width="1060" height="44.4446" fill="#A52A2A"/>
<rect x="0.734131" y="415.111" width="1060" height="44.4446" fill="#690E65"/>
<rect x="0.734131" y="459.555" width="1060" height="44.4446" fill="#4B0082"/>
<path d="M70.9035 149.195V130.387H63.7341V128.297H80.4529V130.387H73.2836V149.195H70.9035Z" fill="black"/>
<path d="M84.0067 149.195V128.297H86.3868V149.195H84.0067ZM97.9971 149.195V128.297H100.377V149.195H97.9971ZM85.2258 137.266H99.042V139.356H85.2258V137.266Z" fill="black"/>
<path d="M105.379 149.195V128.297H107.759V149.195H105.379ZM106.598 149.195V147.105H119.369V149.195H106.598ZM106.598 139.356V137.266H118.325V139.356H106.598ZM106.598 130.387V128.297H119.137V130.387H106.598Z" fill="black"/>
<path d="M135.417 149.195V130.387H128.248V128.297H144.967V130.387H137.798V149.195H135.417Z" fill="black"/>
<path d="M148.521 149.195V128.297H150.901V149.195H148.521Z" fill="black"/>
<path d="M155.891 149.195V128.297H158.358L170.345 145.886L169.997 145.944V128.297H172.261V149.195H169.794L157.806 131.606L158.155 131.548V149.195H155.891Z" fill="black"/>
<path d="M183.387 149.195V139.733L175.463 128.297H178.366L185.245 138.34H184.142L191.021 128.297H193.691L185.767 139.733V149.195H183.387Z" fill="black"/>
<path d="M192.932 153.375V152.185C193.493 151.972 193.899 151.633 194.151 151.169C194.402 150.724 194.528 150.037 194.528 149.108L195.428 149.195H192.932V146.235H195.863V148.586C195.863 149.824 195.631 150.85 195.167 151.662C194.702 152.475 193.957 153.046 192.932 153.375Z" fill="black"/>
<path d="M204.951 149.195L213.02 128.297H215.11L207.244 149.195H204.951ZM221.553 149.195L213.687 128.297H215.922L223.991 149.195H221.553ZM208.956 140.749H219.87V142.839H208.956V140.749Z" fill="black"/>
<path d="M227.519 149.195V128.297H229.899V149.195H227.519ZM228.738 149.195V147.105H240.639V149.195H228.738Z" fill="black"/>
<path d="M244.583 149.195V128.297H246.963V149.195H244.583ZM245.802 149.195V147.105H257.703V149.195H245.802Z" fill="black"/>
<path d="M267.458 149.195V128.297H275.759C277.249 128.297 278.517 128.539 279.562 129.022C280.606 129.506 281.4 130.203 281.942 131.112C282.503 132.022 282.783 133.115 282.783 134.392C282.783 135.669 282.503 136.772 281.942 137.701C281.4 138.611 280.606 139.317 279.562 139.82C278.517 140.323 277.249 140.575 275.759 140.575H269.199V138.485H275.672C277.22 138.485 278.391 138.137 279.184 137.44C279.997 136.724 280.403 135.708 280.403 134.392C280.403 133.076 280.007 132.08 279.213 131.403C278.42 130.725 277.239 130.387 275.672 130.387H269.838V149.195H267.458Z" fill="black"/>
<path d="M295.218 149.486C293.767 149.486 292.432 149.224 291.213 148.702C290.013 148.16 288.968 147.405 288.078 146.438C287.188 145.451 286.491 144.3 285.988 142.984C285.504 141.668 285.263 140.226 285.263 138.659C285.263 136.588 285.688 134.75 286.54 133.144C287.391 131.538 288.562 130.28 290.052 129.371C291.561 128.461 293.274 128.007 295.189 128.007C297.144 128.007 298.866 128.461 300.356 129.371C301.865 130.28 303.046 131.538 303.897 133.144C304.748 134.75 305.174 136.598 305.174 138.688C305.174 140.255 304.923 141.697 304.419 143.013C303.936 144.329 303.249 145.47 302.359 146.438C301.469 147.405 300.414 148.16 299.195 148.702C297.976 149.224 296.65 149.486 295.218 149.486ZM295.189 147.338C296.679 147.338 297.985 146.97 299.108 146.235C300.249 145.48 301.14 144.445 301.778 143.129C302.417 141.813 302.736 140.313 302.736 138.63C302.736 136.966 302.417 135.495 301.778 134.218C301.159 132.941 300.278 131.944 299.137 131.228C298.014 130.512 296.699 130.154 295.189 130.154C293.68 130.154 292.364 130.512 291.242 131.228C290.12 131.944 289.249 132.941 288.63 134.218C288.01 135.476 287.701 136.946 287.701 138.63C287.701 140.333 288.01 141.842 288.63 143.158C289.268 144.454 290.149 145.48 291.271 146.235C292.393 146.97 293.699 147.338 295.189 147.338Z" fill="black"/>
<path d="M313.214 149.195L307.032 128.297H309.47L315.014 147.599H314.578L320.006 128.297H322.909L328.366 147.599H327.93L333.445 128.297H335.738L329.556 149.195H326.653L321.225 130.474H321.574L316.117 149.195H313.214Z" fill="black"/>
<path d="M339.682 149.195V128.297H342.062V149.195H339.682ZM340.901 149.195V147.105H353.672V149.195H340.901ZM340.901 139.356V137.266H352.627V139.356H340.901ZM340.901 130.387V128.297H353.44V130.387H340.901Z" fill="black"/>
<path d="M357.256 149.195V128.297H364.977C366.467 128.297 367.734 128.539 368.779 129.022C369.824 129.506 370.617 130.183 371.159 131.054C371.72 131.906 372.001 132.922 372.001 134.102C372.001 135.282 371.72 136.318 371.159 137.208C370.617 138.078 369.824 138.765 368.779 139.269C367.734 139.752 366.467 139.994 364.977 139.994H358.997V137.904H364.89C366.438 137.904 367.608 137.566 368.402 136.888C369.214 136.211 369.621 135.282 369.621 134.102C369.621 132.941 369.224 132.031 368.431 131.374C367.637 130.716 366.457 130.387 364.89 130.387H359.636V149.195H357.256ZM369.505 149.195L358.388 138.833H361.639L373.104 149.195H369.505Z" fill="black"/>
<path d="M376.304 149.195V128.297H378.684V149.195H376.304ZM377.523 140.226V138.137H388.785V140.226H377.523ZM377.523 130.387V128.297H389.598V130.387H377.523Z" fill="black"/>
<path d="M400.892 149.486C398.377 149.486 396.413 148.721 395 147.193C393.607 145.644 392.91 143.487 392.91 140.72V128.297H395.29V140.836C395.29 142.926 395.774 144.532 396.742 145.654C397.709 146.776 399.093 147.338 400.892 147.338C402.731 147.338 404.133 146.786 405.101 145.683C406.069 144.561 406.552 142.945 406.552 140.836V128.297H408.932V140.749C408.932 143.497 408.226 145.644 406.814 147.193C405.401 148.721 403.427 149.486 400.892 149.486Z" fill="black"/>
<path d="M413.748 149.195V128.297H416.128V149.195H413.748ZM414.967 149.195V147.105H426.868V149.195H414.967Z" fill="black"/>
</g>
<defs>
<clipPath id="clip0_9_3">
<rect width="1060" height="504" fill="white" transform="translate(0.734131)"/>
</clipPath>
</defs>
</svg>
