<svg width="161" height="168" viewBox="0 0 161 168" fill="none" xmlns="http://www.w3.org/2000/svg">
<path fill-rule="evenodd" clip-rule="evenodd" d="M0.360352 21.1379H89.9527L73.0154 56.9035L65.7733 90.8052L91.2376 93.2517L95.2091 145.444H0.360352V21.1379Z" fill="#4D66CC"/>
<path fill-rule="evenodd" clip-rule="evenodd" d="M89.7191 21.1379H160.622V145.444H94.6251L92.0553 91.9702L65.4229 92.4362L71.4969 56.787L89.7191 21.1379Z" fill="#89A1D4"/>
<path d="M93.2233 118.649C110.861 118.299 123.944 114.222 134.34 108.047" stroke="black" stroke-width="6.3"/>
<path d="M26.6423 107.698C46.6166 117.95 67.4086 120.28 89.3687 118.882" stroke="#09098F" stroke-width="6.3"/>
<path d="M44.1636 41.7585V60.515" stroke="#09098F" stroke-width="6.3"/>
<path d="M112.38 41.7585V60.515" stroke="black" stroke-width="6.3"/>
<path d="M104.671 2.14827C84.8131 25.5649 67.6422 56.2045 65.7733 91.9702H94.9754C87.6165 116.319 91.588 143.58 102.802 165.599" stroke="black" stroke-width="6.3"/>
</svg>
