<svg width="366" height="442" viewBox="0 0 366 442" fill="none" xmlns="http://www.w3.org/2000/svg">
<ellipse cx="182.394" cy="97.0714" rx="56.5922" ry="52.7688" transform="rotate(90 182.394 97.0714)" fill="white"/>
<ellipse cx="236.125" cy="238.158" rx="56.5922" ry="52.7688" transform="rotate(90 236.125 238.158)" fill="white"/>
<ellipse cx="125.536" cy="238.158" rx="56.5922" ry="52.7688" transform="rotate(90 125.536 238.158)" fill="white"/>
<path d="M258.514 440.913C253.215 440.109 247.972 438.012 243.667 434.974C241.708 433.592 238.489 430.548 236.899 428.575C234.277 425.32 231.74 420.766 230.701 417.45L230.102 415.536L227.896 415.647C225.551 415.765 219.014 415.532 215.677 415.211C212.789 414.934 208.638 414.403 202.16 413.482C192.691 412.137 191.528 412.031 186.18 412.035C177.924 412.042 171.953 412.776 156.626 415.668C149.492 417.014 146.77 417.411 143.753 417.543L141.23 417.653L140.58 418.952C136.524 427.06 128.428 433.037 118.616 435.168C113.85 436.202 107.276 436.532 102.171 435.993C92.1086 434.931 82.929 432.125 72.3176 426.869C65.5266 423.505 61.4614 422.014 55.3271 420.638C49.795 419.396 45.539 418.749 34.6902 417.5C21.2767 415.954 16.0875 414.879 11.2518 412.641C7.89222 411.087 4.69504 408.349 3.13767 405.694C1.36402 402.669 0.722202 399.949 0.724555 395.466C0.727169 390.708 1.61125 386.19 3.82476 379.624C5.11311 375.803 5.26874 374.752 5.13642 370.774C5.05457 368.312 4.81738 366.115 4.10978 361.262C2.7082 351.651 2.54562 348.359 3.2807 344.478C4.50077 338.036 8.65648 332.482 14.8117 329.065C16.8736 327.92 18.7049 327.14 22.3628 325.85C30.7331 322.896 33.2174 321.636 35.7283 319.069C37.2626 317.501 37.8613 316.75 41.538 311.786C45.2235 306.809 46.3053 305.469 48.3488 303.344L49.9592 301.67L49.6621 299.228C49.2529 295.866 49.1048 288.175 49.3772 284.43C50.3728 270.739 54.2608 256.339 61.1868 240.689C70.2446 220.223 84.4444 197.943 102.43 175.979C106.842 170.591 110.416 165.08 113.876 158.329C120.123 146.141 123.122 134.722 124.466 117.998C124.725 114.773 124.619 111.345 123.901 99.7984C123.108 87.057 122.988 83.9558 122.983 76.1539C122.978 69.0148 123.13 65.3471 123.638 60.2903C126.46 32.2063 138.215 14.3757 159.424 6.01039C169.007 2.2298 181.118 0.328454 193.667 0.634751C204.993 0.911177 213.652 2.84318 222.066 6.97117C227.149 9.46526 231.265 12.4159 235.321 16.4737C247.434 28.5915 254.245 47.4714 256.211 74.3769C256.748 81.7332 256.858 86.5497 256.857 102.545C256.855 121.749 256.925 122.792 258.685 129.99C261.124 139.96 265.87 149.403 274.357 161.167C277.533 165.569 283.29 172.957 287.541 178.086C307.17 201.77 320.224 223.702 327.239 244.785C334.308 266.029 335.086 286.47 329.521 304.751C329.107 306.109 328.735 307.344 328.693 307.495C328.639 307.69 328.985 307.917 329.885 308.28C331.738 309.026 334.836 311.154 336.557 312.863C339.99 316.272 342.103 320.649 343.945 328.172C344.351 329.827 345.134 333.033 345.687 335.297C347.268 341.77 348.619 345.301 350.39 347.579C350.826 348.141 351.995 349.538 352.986 350.683C366.378 366.15 367.596 377.459 356.805 386.153C353.414 388.886 350.39 390.598 338.582 396.473C333.66 398.922 328.647 401.481 327.442 402.159C318.759 407.046 313.504 411.222 307.889 417.697C296.933 430.33 284.639 438.022 271.298 440.59C269.15 441.003 268.244 441.075 264.526 441.124C261.472 441.165 259.738 441.106 258.513 440.92L258.514 440.913ZM266.81 435.333C274.162 434.641 281.683 431.771 289.09 426.83C294.582 423.167 298.786 419.305 304.935 412.276C309.916 406.583 315.686 402.044 323.972 397.301C326.686 395.748 329.051 394.549 341.961 388.187C350.699 383.881 354.638 381.128 356.785 377.828C359.303 373.957 358.575 369.008 354.524 362.46C352.77 359.625 350.506 356.686 346.362 351.864C343.643 348.701 341.912 344.67 340.225 337.576C337.534 326.253 336.996 324.424 335.427 321.26C333.72 317.817 331.26 315.378 327.808 313.705C324.672 312.185 323.703 312.014 317.699 311.922L312.521 311.843L310.668 313.682C304.709 319.595 296.172 324.348 288.543 325.999C285.858 326.58 281.451 326.582 279.445 326.002C276.227 325.072 274.174 323.889 271.776 321.584C267.436 317.411 264.442 310.769 263.485 303.191C263.32 301.882 263.162 300.781 263.135 300.744C263.005 300.571 260.54 302.146 259.189 303.264C255.971 305.929 253.519 309.84 251.766 315.105C249.404 322.202 248.15 331.154 247.274 347.179C246.641 358.773 246.272 360.576 240.516 380.193C236.663 393.328 235.284 400.479 235.261 407.446C235.243 412.954 235.948 416.053 238.107 419.948C241.416 425.916 245.892 430.354 251.044 432.771C255.828 435.017 261.089 435.871 266.81 435.333L266.81 435.333ZM112.908 430.209C118.709 429.578 124.046 427.764 128.101 425.045C129.861 423.865 132.717 421.005 133.894 419.244C135.732 416.493 136.998 413.366 137.782 409.641C138.279 407.275 138.468 402.953 138.157 401.026C137.342 395.962 134.021 389.071 128.781 381.565C126.568 378.397 123.847 374.85 117.973 367.481C109.327 356.636 106.499 352.693 103.996 348.002C103.459 346.996 99.2862 339.341 94.7223 330.992C85.5908 314.287 85.3755 313.943 81.534 309.98C78.3665 306.712 75.6925 304.678 72.8501 303.376C68.9227 301.577 64.3293 301.02 60.8507 301.921C56.6909 302.998 53.0633 306.11 47.9641 312.975C42.4623 320.382 41.3597 321.748 39.3052 323.698C36.2109 326.636 33.3125 328.165 26.0082 330.714C17.9992 333.509 15.6503 334.767 12.9883 337.688C11.0186 339.849 9.67464 342.408 9.14558 345.004C8.33208 348.997 8.5322 351.872 10.5126 364.647C10.7456 366.15 10.9179 368.404 10.9809 370.774C11.106 375.482 10.9227 376.635 9.22311 381.84C7.1484 388.193 6.36077 392.449 6.53146 396.381C6.69004 400.036 7.46662 402.226 9.3112 404.222C12.8938 408.097 18.5786 409.812 33.0461 411.381C48.7489 413.085 54.9491 414.155 62.358 416.443C66.3963 417.69 68.3705 418.506 74.2288 421.35C77.192 422.788 80.7913 424.429 82.2274 424.996C89.0759 427.701 95.7738 429.432 102.038 430.117C104.798 430.419 110.533 430.467 112.908 430.209ZM184.268 396.189C200.872 395.096 217.216 389.263 232.787 378.876C234.062 378.025 235.18 377.233 235.27 377.115C235.486 376.834 238.396 366.556 239.318 362.817C240.822 356.717 241.007 355.262 241.613 344.71C242.855 323.092 245.26 312.329 250.668 304.188C252.096 302.039 255.497 298.573 257.474 297.25C258.824 296.349 262.754 294.324 263.162 294.32C263.264 294.319 263.496 293.36 263.676 292.187C264.245 288.494 265.268 285.867 266.995 283.666C271.114 278.417 279.177 277.54 290.097 281.153C296.066 283.128 304.207 287.167 308.775 290.42C310.708 291.796 313.941 295.031 314.73 296.378C316.226 298.934 316.712 301.703 316.145 304.443C315.982 305.234 315.848 305.916 315.848 305.959C315.848 306.002 316.649 306.014 317.628 305.985L319.409 305.933L319.71 304.744C321.613 297.218 318.023 290.686 308.453 284.26C304.946 281.906 297.865 278.039 294.529 276.656C293.849 276.375 293.225 276.087 293.141 276.016C293.058 275.946 293.16 275.102 293.368 274.142C298.031 252.582 289.571 225.875 270.99 203.505C268.769 200.831 262.833 194.7 262.301 194.531C262.109 194.47 261.745 194.558 261.487 194.727C260.514 195.366 261.266 196.678 264.525 200.03C268.697 204.32 270.956 207.147 274.247 212.193C285.876 230.03 290.375 249.521 286.696 266.122C286.253 268.117 284.958 272.407 284.66 272.863C284.551 273.03 283.969 272.971 282.239 272.617C280.958 272.356 278.925 272.1 277.594 272.032L275.226 271.912L274.98 270.631C271.741 253.756 265.459 236.423 256.059 218.433C249.408 205.703 245.304 196.707 238.691 180.366C232.676 165.502 226.131 146.209 223.256 134.868C223.148 134.441 223 134.093 222.929 134.095C222.858 134.097 222.576 134.415 222.303 134.801C221.468 135.984 219.278 138.235 217.821 139.409C213.928 142.546 209.892 144.72 204.445 146.613C201.994 147.465 199.937 148.508 196.809 150.485C189.797 154.919 186.375 156.76 182.965 157.934C178.493 159.475 173.614 160.112 169.229 159.728C164.997 159.357 162.116 158.558 158.788 156.836C156.167 155.48 154.239 154.056 150.333 150.593C146.076 146.817 145.016 145.98 142.572 144.464C141.472 143.781 139.928 142.774 139.142 142.226C137.539 141.109 137.428 141.133 137.422 142.596C137.417 143.808 136.777 149.174 136.309 151.924C134.959 159.855 133.117 166.972 129.942 176.525C125.74 189.168 120.919 200.831 111.303 221.612C103.823 237.778 102.351 241.198 100.133 247.569C95.4986 260.877 92.5459 275.564 92.0127 287.962C91.9445 289.546 91.8348 290.843 91.7689 290.843C91.7029 290.843 91.064 289.958 90.3492 288.876C81.1628 274.98 80.008 257.494 86.9201 236.968C88.6637 231.791 90.2491 228.089 93.3801 221.886C94.9288 218.818 97.2351 214.25 98.5052 211.735C101.067 206.662 102.355 203.609 102.355 202.61C102.355 201.28 101.85 201.792 99.7576 205.242C90.3606 220.736 84.5174 232.713 80.7074 244.293C75.4581 260.248 74.9103 274.015 79.0767 285.291C81.2859 291.269 84.4123 296.092 89.2057 300.916C92.3001 304.031 94.6358 305.927 98.3878 308.372C99.8805 309.344 102.99 311.389 105.298 312.916C124.524 325.637 136.936 339.661 139.265 351.294C139.586 352.897 139.542 356.006 139.18 357.421C138.365 360.598 136.422 362.95 133.38 364.44C131.173 365.521 129.249 366.012 126.691 366.147C125.561 366.207 124.637 366.305 124.638 366.365C124.639 366.426 125.388 367.422 126.303 368.579C129.229 372.28 133.291 377.774 135.151 380.547L136.957 383.239L139.061 384.565C143.36 387.276 147.691 389.498 151.848 391.126C159.661 394.186 166.309 395.635 175.407 396.261C177.42 396.399 181.588 396.365 184.268 396.189ZM175.589 156.324C181.179 155.569 185.122 153.94 192.117 149.497C198.014 145.752 200.37 144.485 203.075 143.605C215.395 139.593 224.014 130.591 223.058 122.735C222.669 119.549 220.528 116.594 216.95 114.309C215.124 113.143 210.784 111.325 204.81 109.223C198.631 107.049 196.978 106.31 193.252 104.058C185.239 99.2157 179.222 97.0965 172.758 96.841C168.575 96.6758 165.098 97.2972 161.304 98.888C157.586 100.447 154.19 102.814 149.815 106.896C147.794 108.782 145.502 110.637 141.962 113.253C134.911 118.464 134.015 119.188 133.122 120.404C129.484 125.353 131.759 132.22 138.954 138.003C140.626 139.347 141.713 140.089 144.908 142.069C147.013 143.374 149.33 145.213 152.485 148.081C157.829 152.939 160.674 154.667 165.171 155.786C168.372 156.583 172.211 156.781 175.589 156.324ZM165.91 143.599C161.757 143.091 158.109 142.002 154.313 140.136C150.282 138.154 146.786 135.751 142.774 132.206C138.723 128.625 137.136 126.966 136.805 125.967C136.221 124.202 136.59 122.779 137.566 123.024C138.413 123.237 138.973 123.797 139.705 125.16C140.493 126.629 141.907 128.116 145.358 131.105C151.646 136.551 156.881 139.4 163.353 140.899C164.841 141.243 165.634 141.301 168.923 141.306C172.408 141.31 172.967 141.266 175.042 140.819C179.327 139.897 184.31 138.054 189.378 135.518C195.124 132.642 197.536 131.133 203.623 126.612C207.497 123.734 207.805 123.46 209.209 121.625C210.366 120.112 211.084 119.691 212.117 119.918C214.413 120.423 211.611 123.948 204.901 128.997C200.778 132.1 198.216 133.642 192.044 136.738C185.662 139.941 182.758 141.143 178.511 142.34C174.449 143.486 169.239 144.006 165.91 143.599ZM159.288 107.816C158.084 107.316 158.165 106.156 159.465 105.303C159.846 105.053 160.814 104.629 161.618 104.36C162.802 103.964 163.3 103.889 164.242 103.965C165.443 104.06 166.312 104.499 166.423 105.064C166.519 105.55 165.814 106.064 164.75 106.285C164.12 106.416 163.275 106.801 162.505 107.308C161.14 108.205 160.477 108.31 159.288 107.816ZM180.625 107.367C180.021 106.934 179.135 106.5 178.541 106.347C177.176 105.995 176.685 105.662 176.685 105.089C176.685 104.723 176.845 104.554 177.461 104.274C178.867 103.635 181.024 103.93 183.119 105.048C184.902 106 185.17 107.249 183.721 107.855C182.589 108.329 181.79 108.203 180.625 107.367ZM143.126 108.251C144.306 107.356 145.316 106.551 145.37 106.463C145.425 106.375 145.13 105.996 144.716 105.621C141.873 103.049 140.118 97.531 140.398 92.0449C140.962 81.0072 148.688 77.94 152.983 87.0481C154.189 89.6067 154.614 91.6164 154.722 95.271C154.773 97.0063 154.844 98.4262 154.88 98.4262C154.917 98.4262 155.338 98.1851 155.816 97.8905C157.204 97.0364 159.642 95.9175 161.618 95.2281L163.444 94.5909L163.433 90.9756C163.42 86.9614 163.134 84.6628 162.255 81.5338C160.091 73.8251 155.594 68.0982 150.311 66.3248C148.676 65.7762 146.099 65.6507 144.45 66.0395C141.935 66.6327 139.082 68.6928 137.051 71.3843C134.955 74.1602 133.178 78.5657 132.376 82.9706C131.871 85.7445 131.916 92.2334 132.46 95.2162C133.526 101.051 135.832 106.227 138.881 109.63L139.825 110.683L140.402 110.281C140.72 110.06 141.946 109.146 143.126 108.251ZM217.236 108.806C221.392 102.894 223.398 95.3612 222.881 87.6043C222.54 82.4889 221.639 79.0893 219.415 74.5273C216.872 69.3094 213.334 65.5944 208.734 63.3116C205.974 61.9418 204.386 61.5842 201.064 61.5841C197.071 61.584 194.481 62.3388 191.276 64.436C189.147 65.83 185.903 69.0385 184.56 71.0808C182.346 74.4468 180.498 79.1032 179.764 83.1651C179.446 84.9251 179.366 86.1084 179.35 89.2801C179.34 91.4429 179.394 93.5084 179.471 93.87C179.604 94.4932 179.666 94.5395 180.658 94.7584C182.51 95.1667 186.761 96.5477 188.798 97.4022L190.776 98.2326L190.639 97.4602C190.408 96.1508 190.505 92.0196 190.809 90.286C191.182 88.159 191.675 86.6538 192.667 84.6161C194.056 81.7605 196.079 79.7151 198.372 78.8499C199.873 78.2831 202.133 78.3919 203.579 79.1008C208.149 81.3397 210.974 88.6489 210.118 96.0121C209.639 100.128 208.769 102.297 206.744 104.42L205.352 105.879L205.856 106.069C206.134 106.173 207.622 106.724 209.163 107.293C210.704 107.862 212.882 108.725 214.003 109.211C215.123 109.697 216.099 110.103 216.172 110.113C216.245 110.124 216.724 109.535 217.236 108.806L217.236 108.806Z" fill="black"/>
<path d="M168.527 394.748C150.211 391.5 139.051 385.227 130.71 373.49C126.264 367.234 126.086 366.598 128.779 366.598C130.411 366.598 133.591 365.009 135.846 363.066C147.352 353.154 134.143 331.627 104.028 311.207C82.9819 296.937 76.1392 284.837 77.6448 264.554C78.3778 254.679 83.9746 233.683 85.474 235.185C85.7778 235.489 84.978 240.691 83.6966 246.745C80.7699 260.573 81.83 272.493 86.969 283.541C91.5515 293.392 92.2862 292.451 94.7381 273.587C96.6668 258.748 101.6 244.474 115.307 214.066C127.471 187.083 132.828 172.007 136.272 155.069L138.783 142.719L148.298 150.023C159.613 158.709 166.899 161.429 175.638 160.229C182.352 159.307 214.912 143.3 219.756 138.54C222.526 135.818 222.692 136.111 228.798 154.555C237.053 179.485 239.356 185.083 253.944 215.667C260.999 230.46 268.032 247.725 270.23 255.652C272.358 263.326 274.357 270.437 274.673 271.455C274.99 272.475 277.578 273.306 280.441 273.306C284.845 273.306 285.807 272.687 286.772 269.233C289.063 261.027 287.82 240.414 284.479 231.204C280.415 220.005 281.596 218.509 286.2 229.021C291.508 241.139 293.691 252.05 293.464 265.319L293.259 277.324L300.437 280.691C313.401 286.773 321.84 297.486 318.823 304.032C317.875 306.087 317.516 305.645 317.098 301.904C316.123 293.198 301.03 282.703 284.322 279.115C277.898 277.735 276.025 277.893 271.275 280.217C267.621 282.006 265.225 284.457 264.251 287.403C263.437 289.862 259.338 295.194 255.142 299.25C245.858 308.225 243.568 315.073 241.287 340.687C239.531 360.415 236.067 375.251 232.551 378.103C227.91 381.868 206.384 391.518 199.19 393.059C187.867 395.484 176.264 396.125 168.527 394.753L168.527 394.748Z" fill="#FFB046" stroke="black" stroke-width="15.3867"/>
<path d="M253.704 433.195C247.5 431.276 238.91 421.484 236.912 414.052C235.014 406.99 236.38 397.785 242.856 374.001C245.306 365.001 247.744 350.965 248.643 340.68C250.496 319.471 252.037 313.366 257.045 307.405C261.441 302.173 263.51 301.703 263.51 305.937C263.51 310.454 268.812 319.99 273.28 323.509C280.828 329.456 296.233 326.609 307.344 317.214C311.035 314.093 313.534 313.283 319.461 313.283C330.489 313.283 333.663 316.712 338.651 334.017C341.627 344.345 344.338 350.252 348.844 356.23C362.295 374.077 361.081 377.248 335.766 390.394C320.847 398.141 315.28 402.051 303.845 412.814C296.228 419.984 286.573 427.587 282.39 429.709C273.993 433.971 261.229 435.522 253.705 433.195L253.704 433.195Z" fill="#FFBC00" stroke="black" stroke-width="15.3867"/>
<path d="M98.0297 428.656C93.6261 427.894 83.6454 424.531 75.8502 421.183C62.3509 415.385 58.2554 414.429 25.1177 409.338C11.9321 407.312 7.7059 403.979 7.7059 395.605C7.7059 392.128 8.70604 386.012 9.92841 382.014C11.7943 375.91 11.8788 372.448 10.4549 360.437C8.19993 341.415 9.85522 338.217 25.2925 331.768C37.111 326.831 38.7667 325.527 50.3045 312.073C57.487 303.698 58.6565 302.92 64.0553 302.92C76.2811 302.92 80.7404 307.317 95.3188 333.75C101.283 344.563 111.336 360.062 117.659 368.19C131.003 385.344 137.828 397.529 137.828 404.199C137.828 406.795 136.331 411.892 134.501 415.526C128.83 426.789 115.331 431.649 98.0304 428.656H98.0297Z" fill="#FFBC00" stroke="black" stroke-width="15.3867"/>
<path d="M168.292 156.224C163.602 155.607 157.105 152.029 151.171 146.797C149.517 145.339 146.501 143.042 144.469 141.692C137.425 137.015 134.874 134.535 132.792 130.338C131.749 128.237 131.697 128.021 131.697 125.757C131.697 123.017 132.177 121.667 133.786 119.884C134.32 119.292 137.48 116.76 140.807 114.259C144.135 111.757 148.211 108.499 149.864 107.019C155.233 102.212 158.41 100.089 162.43 98.6196C165.67 97.4352 167.811 97.0714 171.542 97.0714C178.633 97.0714 183.451 98.6324 192.863 103.98C197.26 106.478 198.868 107.178 208.023 110.577C217.295 114.021 220.223 116.021 222.192 120.258C223.15 122.32 223.183 125.438 222.27 127.832C221.538 129.754 219.891 132.348 218.245 134.169C215.213 137.524 209.188 141.256 203.462 143.323C200.626 144.347 197.365 146.03 193.457 148.485C190.799 150.155 184.321 153.155 179.27 155.054C175.627 156.424 172.409 156.767 168.291 156.225L168.292 156.224ZM171.971 143.645C177.921 143.048 182.636 141.475 191.169 137.242C198.1 133.804 200.904 132.143 204.985 129.059C212.08 123.698 214.866 119.846 211.647 119.846C210.927 119.846 210.529 120.046 209.892 120.728C209.439 121.213 208.516 122.203 207.841 122.928C206.361 124.517 199.208 129.777 195.371 132.099C189.603 135.588 182.112 138.857 176.662 140.265C173.834 140.995 173.281 141.051 168.993 141.051C163.8 141.05 161.721 140.654 157.477 138.858C151.36 136.268 142.659 129.468 139.777 125.023C138.634 123.26 137.841 122.73 136.894 123.094C136.551 123.226 136.491 123.55 136.58 124.782C136.717 126.681 137.414 127.593 141.529 131.268C148.542 137.529 154.622 141.106 161.084 142.773C165.466 143.904 167.647 144.078 171.971 143.644L171.971 143.645ZM162.459 107.446C163.372 106.961 164.487 106.483 164.937 106.384C165.92 106.168 166.664 105.416 166.45 104.856C165.794 103.144 160.194 103.959 158.698 105.985C158.077 106.825 158.306 107.486 159.379 107.954C160.512 108.448 160.6 108.434 162.459 107.446ZM183.722 107.949C184.461 107.64 184.629 107.429 184.629 106.811C184.629 105.941 184.189 105.487 182.545 104.659C181.197 103.979 178.569 103.694 177.499 104.11C175.98 104.702 176.444 105.891 178.425 106.485C179.034 106.667 179.843 107.038 180.223 107.309C181.692 108.355 182.43 108.489 183.722 107.949Z" fill="#FF942A" stroke="black" stroke-width="2.72"/>
<path d="M157.868 387.313C147.876 383.792 138.095 377.325 135.546 372.554C134.348 370.313 134.916 369.071 138.524 366.03C150.784 355.698 142.002 334.882 117.333 315.804C111.014 310.917 102.519 304.358 98.4564 301.228L91.069 295.538L94.0223 292.342C95.9961 290.207 97.5607 285.229 98.74 277.332C101.218 260.736 104.761 249.966 117.508 220.282C130.929 189.029 135.908 175.601 139.32 161.452L141.901 150.754L146.557 154.248C155.859 161.229 164.217 164.555 172.28 164.483C178.783 164.425 183.269 162.822 199.976 154.583C210.94 149.176 220.258 144.752 220.68 144.752C221.103 144.752 221.449 145.429 221.449 146.257C221.449 150.263 236.147 187.584 247.511 212.433C254.513 227.743 262.716 247.882 265.741 257.186L271.241 274.103L265.198 280.395C250.754 295.433 243.259 306.061 240.593 315.284C239.805 318.009 238.156 328.902 236.928 339.49C235.7 350.079 233.685 362.267 232.451 366.574C229.851 375.643 227.222 377.686 208.881 384.885C199.127 388.714 194.458 389.631 182.265 390.111C169.681 390.606 166.047 390.188 157.867 387.305L157.868 387.313Z" fill="url(#paint0_linear_1_18)" stroke="black" stroke-width="15.3867"/>
<defs>
<linearGradient id="paint0_linear_1_18" x1="204.589" y1="233.464" x2="197.918" y2="428.943" gradientUnits="userSpaceOnUse">
<stop stop-color="white"/>
<stop offset="1" stop-color="white"/>
</linearGradient>
</defs>
</svg>
